<svg width="48" height="48" viewBox="0 0 48 48" fill="none" xmlns="http://www.w3.org/2000/svg">
<path d="M30.134 32C43.312 31.946 48 24.976 48 19C47.9987 17.4016 47.4503 15.8517 46.4461 14.6081C45.4419 13.3644 44.0423 12.502 42.48 12.164C43.0579 10.538 43.5256 8.87489 43.88 7.18601C44.0576 6.3214 44.0397 5.42802 43.8276 4.57123C43.6154 3.71443 43.2145 2.91589 42.654 2.23401C42.0864 1.53508 41.3699 0.97178 40.5567 0.585269C39.7436 0.198758 38.8543 -0.00119894 37.954 8.44471e-06H10.046C9.14532 -0.00149707 8.25569 0.198317 7.44216 0.584838C6.62863 0.97136 5.91177 1.53482 5.344 2.23401C4.78352 2.91589 4.38255 3.71443 4.17043 4.57123C3.95831 5.42802 3.94039 6.3214 4.118 7.18601C4.47146 8.87512 4.9392 10.5383 5.518 12.164C3.95605 12.5024 2.55691 13.365 1.55309 14.6086C0.549271 15.8522 0.00121499 17.4018 0 19C0 24.976 4.688 31.946 17.866 32C17.9408 32.421 17.9856 32.8467 18 33.274V40C18.0344 40.5342 17.9545 41.0696 17.7656 41.5705C17.5767 42.0714 17.2832 42.5262 16.9047 42.9047C16.5262 43.2833 16.0714 43.5767 15.5705 43.7656C15.0696 43.9545 14.5342 44.0344 14 44H10V48H38V44H34.016C33.4807 44.0361 32.9438 43.9575 32.4413 43.7695C31.9387 43.5814 31.4821 43.2883 31.102 42.9097C30.7218 42.531 30.4269 42.0756 30.2368 41.5738C30.0468 41.072 29.9661 40.5355 30 40V33.274C30.0144 32.8467 30.0592 32.421 30.134 32ZM41 16C41.7957 16 42.5587 16.3161 43.1213 16.8787C43.6839 17.4413 44 18.2044 44 19C44 23.096 40.738 27.45 31.752 27.95C32.1057 27.4855 32.514 27.0651 32.968 26.698C36.3776 23.7722 39.084 20.1156 40.886 16H41ZM4 19C4 18.2044 4.31607 17.4413 4.87868 16.8787C5.44129 16.3161 6.20435 16 7 16H7.114C8.91459 20.1159 11.6204 23.7727 15.03 26.698C15.4847 27.0651 15.8936 27.4854 16.248 27.95C7.262 27.45 4 23.096 4 19ZM26 33.274V40C25.9775 41.3947 26.3128 42.7718 26.974 44H21.026C21.6872 42.7718 22.0225 41.3947 22 40V33.274C22.0339 31.4244 21.6493 29.591 20.8749 27.911C20.1005 26.2309 18.9564 24.7476 17.528 23.572C12.6 19.632 9.2 12.1 8.036 6.38001C7.97621 6.09761 7.98114 5.80535 8.05042 5.52513C8.11969 5.24491 8.25152 4.98402 8.436 4.76201C8.63015 4.52251 8.87562 4.3297 9.15429 4.1978C9.43296 4.06591 9.7377 3.99832 10.046 4.00001H37.954C38.2606 3.99981 38.5634 4.06813 38.8402 4.19996C39.117 4.3318 39.3609 4.52383 39.554 4.76201C39.738 4.98431 39.8695 5.24522 39.9387 5.52534C40.008 5.80546 40.0132 6.09759 39.954 6.38001C38.782 12.1 35.39 19.632 30.46 23.58C29.0351 24.7561 27.894 26.2387 27.1218 27.9172C26.3496 29.5956 25.9661 31.4267 26 33.274Z" fill="#95A8BB"/>
</svg>
