<svg width="40" height="48" viewBox="0 0 40 48" fill="none" xmlns="http://www.w3.org/2000/svg">
<path d="M24.828 0H6C4.4087 0 2.88258 0.632141 1.75736 1.75736C0.632141 2.88258 0 4.4087 0 6V48H40V15.172L24.828 0ZM26 6.828L33.172 14H26V6.828ZM4 44V6C4 5.46957 4.21071 4.96086 4.58579 4.58579C4.96086 4.21071 5.46957 4 6 4H22V18H36V44H4ZM26.586 26.244L29.414 29.072L22.242 36.242C21.6848 36.7993 21.0234 37.2413 20.2953 37.5429C19.5673 37.8445 18.787 37.9997 17.999 37.9997C17.211 37.9997 16.4307 37.8445 15.7027 37.5429C14.9746 37.2413 14.3132 36.7993 13.756 36.242L10.586 33.072L13.414 30.244L16.586 33.414C16.9667 33.7781 17.4732 33.9812 18 33.9812C18.5268 33.9812 19.0333 33.7781 19.414 33.414L26.586 26.244Z" fill="#95A8BB"/>
</svg>
