<svg width="20" height="20" viewBox="0 0 20 20" fill="none" xmlns="http://www.w3.org/2000/svg">
<path d="M9.99984 11.6667C10.4601 11.6667 10.8332 11.2936 10.8332 10.8333C10.8332 10.3731 10.4601 10 9.99984 10C9.5396 10 9.1665 10.3731 9.1665 10.8333C9.1665 11.2936 9.5396 11.6667 9.99984 11.6667Z" stroke="white" stroke-width="1.6" stroke-linecap="round" stroke-linejoin="round"/>
<path d="M15.8333 11.6667C16.2936 11.6667 16.6667 11.2936 16.6667 10.8333C16.6667 10.3731 16.2936 10 15.8333 10C15.3731 10 15 10.3731 15 10.8333C15 11.2936 15.3731 11.6667 15.8333 11.6667Z" stroke="white" stroke-width="1.6" stroke-linecap="round" stroke-linejoin="round"/>
<path d="M4.16683 11.6667C4.62707 11.6667 5.00016 11.2936 5.00016 10.8333C5.00016 10.3731 4.62707 10 4.16683 10C3.70659 10 3.3335 10.3731 3.3335 10.8333C3.3335 11.2936 3.70659 11.6667 4.16683 11.6667Z" stroke="white" stroke-width="1.6" stroke-linecap="round" stroke-linejoin="round"/>
</svg>
