<svg width="17" height="17" viewBox="0 0 17 17" fill="none" xmlns="http://www.w3.org/2000/svg">
<path d="M13.8579 10.9344C14.1153 11.1918 14.3588 11.4234 14.5769 11.6309L14.5901 11.6434C14.8147 11.8571 15.0071 12.0404 15.1737 12.2112C15.5205 12.5668 15.6698 12.7859 15.7248 12.952C15.7615 13.0631 15.7785 13.2112 15.6278 13.5059C15.4624 13.8294 15.1237 14.2673 14.504 14.8887C14.4611 14.9272 14.4228 14.9666 14.4037 14.9863C14.4014 14.9887 14.3993 14.9908 14.3976 14.9925L14.3949 14.9953C14.3601 15.0309 14.328 15.0639 14.2899 15.1001C14.2139 15.1724 14.1196 15.2522 14.0001 15.326C13.7713 15.4674 13.4101 15.6125 12.8455 15.5783C11.6709 15.5072 9.5166 14.6507 5.93417 11.0693C2.35132 7.48746 1.49368 5.33275 1.4219 4.15771C1.3874 3.59275 1.53227 3.23135 1.67352 3.00246C1.74729 2.88293 1.82702 2.78866 1.8992 2.71268C1.93549 2.67448 1.96853 2.64221 2.00421 2.60735L2.00662 2.605C2.00839 2.60327 2.01049 2.60123 2.01288 2.5989C2.03258 2.57977 2.07188 2.5416 2.11021 2.49883C2.73347 1.87741 3.17225 1.53788 3.49619 1.37216C3.79114 1.22128 3.93853 1.23873 4.0486 1.27533C4.21418 1.33039 4.4327 1.47993 4.78824 1.82755C4.959 1.9945 5.14219 2.18712 5.35592 2.41207L5.36038 2.41676C5.56995 2.63734 5.80424 2.88392 6.06523 3.14484C6.48545 3.56495 6.52512 3.82028 6.52083 3.98879C6.51797 4.10114 6.49217 4.23118 6.4378 4.40792C6.41067 4.49609 6.37916 4.5876 6.34247 4.69274C6.33881 4.70322 6.3351 4.71385 6.33133 4.72462C6.29866 4.81815 6.26221 4.92247 6.22776 5.02913C6.06938 5.51956 5.92197 6.14891 6.11041 6.91656C6.29491 7.66813 6.77626 8.45429 7.66294 9.34073C8.54961 10.2271 9.33587 10.7083 10.0875 10.8924C10.8552 11.0805 11.4844 10.9326 11.9747 10.7738C12.0814 10.7392 12.1857 10.7026 12.2793 10.6698C12.29 10.6661 12.3005 10.6624 12.3109 10.6588C12.416 10.622 12.5075 10.5904 12.5956 10.5632C12.7723 10.5086 12.9022 10.4827 13.0145 10.4798C13.1827 10.4753 13.4378 10.5147 13.8579 10.9344ZM13.8579 10.9344L14.3881 10.404M13.8579 10.9344C13.8579 10.9345 13.8579 10.9345 13.858 10.9345L14.3881 10.404M14.3881 10.404C14.6389 10.6548 14.8766 10.8808 15.0959 11.0894C16.6602 12.5773 17.2837 13.1704 15.0161 15.4373L1.56172 1.98662C3.83049 -0.282297 4.42093 0.339132 5.90186 1.89781C6.11258 2.11959 6.34132 2.36034 6.59549 2.61444C7.53484 3.55353 7.30034 4.22486 7.03949 4.97164C6.71258 5.90753 6.34428 6.96192 8.1932 8.81032C10.0422 10.6589 11.0961 10.2896 12.0316 9.96193C12.7779 9.70046 13.4489 9.4654 14.3881 10.404Z" stroke="#7F95AA" stroke-width="1.5"/>
</svg>
