<svg width="14" height="18" viewBox="0 0 14 18" fill="none" xmlns="http://www.w3.org/2000/svg">
<path d="M6.99992 12.3948C8.78946 12.3948 10.3497 12.5432 11.4387 12.9288C11.9782 13.1199 12.3494 13.3513 12.5804 13.6034C12.7959 13.8386 12.9166 14.1194 12.9166 14.499C12.9166 14.8772 12.7957 15.1559 12.58 15.3891C12.3482 15.6397 11.9756 15.8693 11.4343 16.0583C10.3418 16.4399 8.78079 16.5832 6.99992 16.5832C5.21081 16.5832 3.65058 16.4348 2.56144 16.0491C2.02187 15.858 1.65057 15.6266 1.41953 15.3745C1.20396 15.1393 1.08325 14.8584 1.08325 14.479C1.08325 14.1007 1.20411 13.8221 1.41987 13.5888C1.65161 13.3383 2.02422 13.1087 2.56555 12.9196C3.65799 12.5381 5.21905 12.3948 6.99992 12.3948ZM6.99992 1.4165C9.03531 1.4165 10.6616 3.04275 10.6616 5.07571C10.6616 7.10886 9.03512 8.73576 6.99992 8.73576C4.96546 8.73576 3.33826 7.10877 3.33826 5.07571C3.33826 3.04285 4.96527 1.4165 6.99992 1.4165Z" stroke="#7F95AA" stroke-width="1.5"/>
</svg>
